<?xml version="1.0" encoding="UTF-8" standalone="no"?>
<svg
   xmlns:dc="http://purl.org/dc/elements/1.1/"
   xmlns:cc="http://creativecommons.org/ns#"
   xmlns:rdf="http://www.w3.org/1999/02/22-rdf-syntax-ns#"
   xmlns:svg="http://www.w3.org/2000/svg"
   xmlns="http://www.w3.org/2000/svg"
   xmlns:sodipodi="http://sodipodi.sourceforge.net/DTD/sodipodi-0.dtd"
   xmlns:inkscape="http://www.inkscape.org/namespaces/inkscape"
   inkscape:export-ydpi="300"
   inkscape:export-xdpi="300"
   inkscape:export-filename="C:\Users\eshor\Desktop\g1945.png"
   width="144.72179mm"
   height="144.72179mm"
   viewBox="0 0 144.72179 144.72179"
   version="1.1"
   id="svg857"
   inkscape:version="1.0 (4035a4fb49, 2020-05-01)"
   sodipodi:docname="natura icon round.svg">
  <defs
     id="defs851" />
  <sodipodi:namedview
     fit-margin-bottom="0"
     fit-margin-right="0"
     fit-margin-left="0"
     fit-margin-top="0"
     inkscape:pagecheckerboard="true"
     id="base"
     pagecolor="#4d4d4d"
     bordercolor="#4d4d4d"
     borderopacity="1"
     inkscape:pageopacity="0"
     inkscape:pageshadow="2"
     inkscape:zoom="1.0916486"
     inkscape:cx="328.82849"
     inkscape:cy="379.27696"
     inkscape:document-units="mm"
     inkscape:current-layer="layer1"
     inkscape:document-rotation="0"
     showgrid="false"
     inkscape:window-width="1920"
     inkscape:window-height="1001"
     inkscape:window-x="-9"
     inkscape:window-y="-9"
     inkscape:window-maximized="1" />
  <metadata
     id="metadata854">
    <rdf:RDF>
      <cc:Work
         rdf:about="">
        <dc:format>image/svg+xml</dc:format>
        <dc:type
           rdf:resource="http://purl.org/dc/dcmitype/StillImage" />
        <dc:title></dc:title>
      </cc:Work>
    </rdf:RDF>
  </metadata>
  <g
     transform="translate(-48.218399,-118.99056)"
     inkscape:label="Layer 1"
     inkscape:groupmode="layer"
     id="layer1">
    <circle
       r="72.360893"
       cy="191.35146"
       cx="120.57929"
       id="path842"
       style="fill:#d0b3ef;fill-opacity:1;stroke-width:0.361804;stroke-linecap:square;paint-order:fill markers stroke" />
    <g
       style="stroke-width:0.176293"
       transform="matrix(5.6723684,0,0,5.6723684,-800.39473,-1204.2206)"
       id="g1945"
       inkscape:export-xdpi="300"
       inkscape:export-ydpi="300">
      <path
         id="path1734-6-0-2"
         style="font-style:normal;font-variant:normal;font-weight:normal;font-stretch:normal;font-size:10.5833px;line-height:1.25;font-family:'Permanent Marker';-inkscape-font-specification:'Permanent Marker, Normal';font-variant-ligatures:normal;font-variant-caps:normal;font-variant-numeric:normal;font-variant-east-asian:normal;letter-spacing:0px;word-spacing:0px;white-space:pre;fill:#579317;fill-opacity:1;stroke:none;stroke-width:0.176292"
         d="m 171.12952,238.27863 q 0.0753,0.23235 0.11312,0.43554 0.0377,0.20341 0.11311,0.43556 -0.15079,0.2904 -0.26392,0.58078 -0.11311,0.26127 -0.2262,0.52265 -0.11311,0.20341 -0.1508,0.26129 -0.0377,0.0581 -0.0377,0.0871 0,0.0289 0,0.0871 0.0377,0.0289 0.0377,0.23234 l -0.1508,0.34848 q -0.18852,0.20312 -0.45242,0.31939 -0.26391,0.1163 -0.52782,0.2034 -0.0753,0.0581 -0.2262,0.0871 -0.1508,0.0581 -0.2262,0.11602 l -0.11311,0.34845 -0.49012,0.0581 q -0.64092,0.11604 -1.09334,0.11604 h -0.45241 q -0.45242,-0.31942 -0.71632,-0.49364 -0.26393,-0.1742 -0.56553,-0.31939 -0.37701,-0.40654 -0.41471,-0.58077 -0.0377,-0.2034 -0.11312,-0.37749 -0.0753,-0.37749 -0.18851,-0.49364 l -0.52782,-0.40652 0.45242,-0.26128 -0.41472,-0.55172 q 0.45242,-0.26129 0.67862,-0.37748 0.22621,-0.11605 0.37701,-0.23236 0.15081,-0.14525 0.33933,-0.34843 0.18852,-0.20342 0.60321,-0.66788 l 0.33933,-0.37749 0.49011,0.20342 q 0.15081,0.0871 0.64092,0.17419 0.52783,0.0581 0.90484,0.11604 0.64092,0.14525 1.20644,0.23234 0.56552,0.0581 0.90483,0.29037 z" />
      <path
         d="m 160.20678,237.37928 -6.39088,0.29377 -0.46015,17.35681 h 5.7518 l 0.5624,-9.05786 3.57889,8.88649 6.69765,-0.58754 0.63748,-11.49878 -5.87055,-0.002 -0.0841,3.42219 z"
         style="font-style:normal;font-variant:normal;font-weight:normal;font-stretch:normal;font-size:25.4px;line-height:1.25;font-family:'Luckiest Guy';-inkscape-font-specification:'Luckiest Guy, Normal';font-variant-ligatures:normal;font-variant-caps:normal;font-variant-numeric:normal;font-variant-east-asian:normal;letter-spacing:0px;word-spacing:0px;white-space:pre;fill:#531793;fill-opacity:1;stroke:none;stroke-width:0.176293"
         id="path1657-1-0" />
    </g>
  </g>
</svg>
