<?xml version="1.0" encoding="UTF-8" standalone="no"?>
<svg
   xmlns:dc="http://purl.org/dc/elements/1.1/"
   xmlns:cc="http://creativecommons.org/ns#"
   xmlns:rdf="http://www.w3.org/1999/02/22-rdf-syntax-ns#"
   xmlns:svg="http://www.w3.org/2000/svg"
   xmlns="http://www.w3.org/2000/svg"
   xmlns:sodipodi="http://sodipodi.sourceforge.net/DTD/sodipodi-0.dtd"
   xmlns:inkscape="http://www.inkscape.org/namespaces/inkscape"
   inkscape:export-ydpi="300"
   inkscape:export-xdpi="300"
   inkscape:export-filename="C:\Users\eshor\Desktop\natura logo.png"
   width="210mm"
   height="297mm"
   viewBox="0 0 210 297"
   version="1.1"
   id="svg8"
   sodipodi:docname="natura logo.svg"
   inkscape:version="1.0 (4035a4fb49, 2020-05-01)">
  <defs
     id="defs2">
    <rect
       x="20.465961"
       y="44.893075"
       width="167.68884"
       height="101.00942"
       id="rect12" />
  </defs>
  <sodipodi:namedview
     id="base"
     pagecolor="#ffffff"
     bordercolor="#666666"
     borderopacity="1.0"
     inkscape:pageopacity="0.0"
     inkscape:pageshadow="2"
     inkscape:zoom="0.92575887"
     inkscape:cx="99.210539"
     inkscape:cy="243.06582"
     inkscape:document-units="mm"
     inkscape:current-layer="layer1"
     inkscape:document-rotation="0"
     showgrid="false"
     inkscape:window-width="1920"
     inkscape:window-height="1001"
     inkscape:window-x="-9"
     inkscape:window-y="-9"
     inkscape:window-maximized="1" />
  <metadata
     id="metadata5">
    <rdf:RDF>
      <cc:Work
         rdf:about="">
        <dc:format>image/svg+xml</dc:format>
        <dc:type
           rdf:resource="http://purl.org/dc/dcmitype/StillImage" />
      </cc:Work>
    </rdf:RDF>
  </metadata>
  <g
     inkscape:label="Layer 1"
     inkscape:groupmode="layer"
     id="layer1">
    <path
       id="path16"
       style="font-style:normal;font-variant:normal;font-weight:normal;font-stretch:normal;font-size:50.8px;line-height:1.25;font-family:Foo;-inkscape-font-specification:'Foo, Normal';font-variant-ligatures:normal;font-variant-caps:normal;font-variant-numeric:normal;font-variant-east-asian:normal;letter-spacing:0px;word-spacing:0px;white-space:pre;fill:#000000;fill-opacity:1;stroke:none;stroke-width:4.84475"
       d="M 52.904297 201.91797 C 52.682372 201.92303 52.51847 201.92441 52.292969 201.92969 C 46.824716 201.92969 39.673178 202.11991 30.839844 202.50391 C 26.633494 202.75991 23.794488 203.27302 22.322266 204.04102 C 20.850043 204.68102 20.113281 206.08963 20.113281 208.26562 L 20.113281 230.15234 L 20.113281 253.19336 C 20.323599 260.87336 20.429688 268.36025 20.429688 275.65625 C 20.640006 282.95225 20.744141 289.67241 20.744141 295.81641 C 20.954459 301.96041 21.060547 307.33731 21.060547 311.94531 L 21.060547 322.3125 C 21.060547 324.6165 21.164682 326.85721 21.375 329.0332 C 21.585318 331.0812 22.32208 332.42445 23.583984 333.06445 C 24.214937 333.44845 24.951699 333.76939 25.792969 334.02539 C 26.844556 334.40939 28.316127 334.66497 30.208984 334.79297 C 32.101842 334.92097 34.520399 334.98438 37.464844 334.98438 C 40.619605 335.11237 44.719959 335.17578 49.767578 335.17578 C 54.815198 335.17578 58.811413 335.04897 61.755859 334.79297 C 64.700303 334.66497 66.908638 334.34403 68.380859 333.83203 C 69.853084 333.44803 70.800069 332.80811 71.220703 331.91211 C 71.641339 331.14411 71.851562 330.11984 71.851562 328.83984 C 71.851562 326.40785 71.745474 323.97692 71.535156 321.54492 C 71.324838 319.11292 71.114615 316.42447 70.904297 313.48047 C 70.693981 310.53647 70.379621 307.27345 69.958984 303.68945 C 69.748669 299.97745 69.538443 295.75358 69.328125 291.01758 C 77.10987 296.77758 84.785993 302.79245 92.357422 309.06445 C 99.928851 315.33645 106.34362 321.03234 111.60156 326.15234 C 113.91505 328.45634 115.91316 330.18394 117.5957 331.33594 C 119.48856 332.61594 121.80103 333.51339 124.53516 334.02539 C 127.4796 334.66539 131.37168 335.04778 136.20898 335.17578 C 141.04629 335.30378 147.5652 335.36914 155.76758 335.36914 C 161.65647 335.36914 166.28336 335.30378 169.64844 335.17578 C 173.22383 335.17578 175.9587 335.11237 177.85156 334.98438 C 179.74442 334.85638 181.00577 334.6642 181.63672 334.4082 C 182.47799 334.2802 183.21475 334.08803 183.8457 333.83203 C 184.68697 333.44803 185.21351 332.7447 185.42383 331.7207 C 185.84446 330.8247 186.36905 328.90493 187 325.96094 C 187.42063 324.04094 187.63086 319.24055 187.63086 311.56055 C 187.84118 303.75255 187.94727 293.64061 187.94727 281.22461 C 187.94727 272.39261 187.84118 264.13703 187.63086 256.45703 C 187.42054 248.77703 187.31641 241.09602 187.31641 233.41602 L 187.31641 219.01758 C 187.31641 215.43358 187.21032 212.67977 187 210.75977 C 187 208.71177 186.89586 207.2417 186.68555 206.3457 C 186.47523 205.4497 186.26501 204.68102 186.05469 204.04102 C 185.84437 203.65702 185.42392 203.33608 184.79297 203.08008 C 184.37233 202.69608 183.21512 202.4405 181.32227 202.3125 C 179.42941 202.1845 176.5904 202.12109 172.80469 202.12109 C 171.87927 202.0898 170.56315 202.07442 169.44922 202.05078 A 59.702076 76.330986 4.6136247 0 1 170.0625 224.70117 A 59.702076 76.330986 4.6136247 0 1 103.76367 294.98242 A 59.702076 76.330986 4.6136247 0 1 51.205078 213.22656 A 59.702076 76.330986 4.6136247 0 1 52.904297 201.91797 z "
       transform="scale(0.26458333)" />
    <path
       id="path18"
       style="font-style:normal;font-variant:normal;font-weight:normal;font-stretch:normal;font-size:50.8px;line-height:1.25;font-family:Foo;-inkscape-font-specification:'Foo, Normal';font-variant-ligatures:normal;font-variant-caps:normal;font-variant-numeric:normal;font-variant-east-asian:normal;letter-spacing:0px;word-spacing:0px;white-space:pre;fill:#000000;fill-opacity:1;stroke:none"
       d="m 71.78194,61.351778 c 1.016,4.504267 1.964267,8.923867 2.8448,13.2588 0.9144,4.301067 1.761066,8.6868 2.539999,13.157199 0,0.541867 -0.254,0.8128 -0.762,0.8128 -1.523999,0 -2.997199,-0.01693 -4.419599,-0.0508 -1.388533,0 -2.8448,-0.08467 -4.3688,-0.254 -0.338667,-0.135467 -0.575733,-0.372533 -0.7112,-0.7112 -0.135467,-0.338667 -0.237067,-1.049866 -0.3048,-2.133599 -0.4064,0.270933 -0.829733,0.508 -1.27,0.7112 -0.440267,0.169333 -0.7112,0.254 -0.8128,0.254 -0.169333,0 -0.372533,-0.0508 -0.6096,-0.1524 -0.237067,-0.135467 -0.4064,-0.287867 -0.508,-0.4572 l -0.2032,1.066799 c -0.06773,0.3048 -0.135467,0.541867 -0.2032,0.7112 -0.06773,0.169333 -0.237067,0.287867 -0.508,0.3556 -0.270933,0.1016 -0.7112,0.1524 -1.3208,0.1524 -0.6096,0.03387 -1.490133,0.0508 -2.6416,0.0508 -1.3208,0 -2.3876,-0.01693 -3.2004,-0.0508 -0.778933,0 -1.388533,-0.03387 -1.8288,-0.1016 -0.440267,-0.06773 -0.728133,-0.169333 -0.8636,-0.3048 -0.135467,-0.1016 -0.2032,-0.254 -0.2032,-0.4572 v -0.254 c 0,-0.1016 0.01693,-0.237067 0.0508,-0.4064 1.964267,-8.466666 4.250267,-16.916399 6.858,-25.349199 0.06773,-0.2032 0.186267,-0.3556 0.3556,-0.4572 0.169333,-0.1016 0.440267,-0.169333 0.8128,-0.2032 0.372533,-0.06773 0.880533,-0.1016 1.524,-0.1016 0.643467,-0.03387 1.4732,-0.0508 2.4892,-0.0508 1.456267,0 2.6416,0.01693 3.556,0.0508 0.9144,0.03387 1.6256,0.1016 2.1336,0.2032 0.541867,0.06773 0.9144,0.169333 1.1176,0.3048 0.237067,0.1016 0.389467,0.237067 0.4572,0.4064 z m -4.829002,19.310193 c -0.169333,-1.049867 -0.572731,-2.83406 -0.809798,-3.714593 -0.237067,-0.880533 -0.541867,-1.9812 -0.9144,-3.302 -0.338667,1.083733 -0.643467,2.218267 -0.9144,3.4036 -0.270933,1.151467 -0.541867,2.3368 -0.8128,3.556 1.015967,-0.707019 2.3041,-0.217923 3.451398,0.05699 z"
       sodipodi:nodetypes="cccsccsccscccsccscscssccsccssccccscccc" />
    <path
       id="path20"
       style="font-style:normal;font-variant:normal;font-weight:normal;font-stretch:normal;font-size:50.8px;line-height:1.25;font-family:Foo;-inkscape-font-specification:'Foo, Normal';font-variant-ligatures:normal;font-variant-caps:normal;font-variant-numeric:normal;font-variant-east-asian:normal;letter-spacing:0px;word-spacing:0px;white-space:pre;fill:#000000;fill-opacity:1;stroke:none"
       d="m 98.925811,60.132578 q 0.6604,0.1016 0.762,0.762 0.1016,1.3208 0.1016,2.4892 0.0508,1.1684 0.0508,2.4892 0,3.048 -0.1524,6.1468 -0.0508,0.3556 -0.2032,0.6096 -0.1524,0.2032 -0.5588,0.2032 h -4.572 q -0.0508,1.3208 -0.2032,3.048 -0.1016,1.7272 -0.3048,3.6576 -0.1524,1.9304 -0.3556,3.9624 -0.2032,1.9812 -0.4064,3.860799 -0.1016,0.5588 -0.9652,0.762 -0.8636,0.2032 -2.3368,0.2032 -1.524,0 -2.6416,-0.0508 -1.1176,-0.0508 -2.1336,-0.1524 -0.3556,-0.1016 -0.508,-0.3556 -0.1524,-0.2032 -0.2032,-0.9652 -0.254,-3.809999 -0.4572,-7.264399 -0.2032,-3.4544 -0.5588,-6.8072 -0.7112,-0.1016 -1.3716,-0.1016 -0.6604,0 -1.3716,0 h -1.8796 q -0.762,0 -0.762,-0.762 -0.1016,-1.4732 -0.1524,-2.9972 0,-1.5748 0,-3.048 0,-1.3716 0,-2.5908 0.0508,-1.2192 0.1524,-2.54 0,-0.4572 0.508,-0.6604 0.508,-0.2032 1.27,-0.254 0.762,-0.0508 1.5748,0 0.8636,0 1.524,0 4.064,0 8.128,0.0508 4.1148,0 8.0264,0.3048 z" />
    <path
       id="path22"
       style="font-style:normal;font-variant:normal;font-weight:normal;font-stretch:normal;font-size:50.8px;line-height:1.25;font-family:Foo;-inkscape-font-specification:'Foo, Normal';font-variant-ligatures:normal;font-variant-caps:normal;font-variant-numeric:normal;font-variant-east-asian:normal;letter-spacing:0px;word-spacing:0px;white-space:pre;fill:#000000;fill-opacity:1;stroke:none"
       d="m 124.606,60.996178 q 0.0508,0.1524 0.0508,0.3556 0,0.2032 0,0.4064 0,1.3716 -0.1016,3.4544 -0.0508,2.0828 -0.1524,4.3688 -0.0508,2.286 -0.1524,4.4704 -0.0508,2.1844 -0.0508,3.7084 0,2.3876 -0.4572,4.318 -0.4064,1.9304 -1.6256,3.3528 -1.1684,1.422399 -3.2512,2.184399 -2.032,0.762 -5.2832,0.762 -5.7912,0 -8.382,-2.590799 -2.54,-2.6416 -2.54,-7.9756 0,-2.032 -0.0508,-4.2164 0,-2.1844 0,-4.2164 0,-2.0828 -0.0508,-3.81 0,-1.778 0,-2.9972 0,-0.8636 0.254,-1.27 0.254,-0.4064 0.9652,-0.508 2.4384,-0.4064 4.2672,-0.4064 1.8796,0 3.81,0 0.508,0 1.1176,0 0.6604,0 1.4224,0.1016 0.762,0.1016 1.0668,0.3556 0.3048,0.254 0.3048,1.4224 0,4.318 -0.1524,8.8392 -0.1016,4.4704 -0.1016,8.7884 0,0.4064 0.1524,0.8636 0.2032,0.4572 0.762,0.4572 0.8128,0 0.9652,-0.8128 0.2032,-0.8636 0.2032,-1.7272 0,-3.9624 -0.1016,-8.1788 -0.0508,-4.2164 -0.0508,-8.6868 0,-1.0668 0.508,-1.3208 0.508,-0.3048 2.4892,-0.3048 2.3368,0 3.1496,0.1524 0.8128,0.1524 1.016,0.6604 z" />
    <path
       id="path24"
       style="font-style:normal;font-variant:normal;font-weight:normal;font-stretch:normal;font-size:50.8px;line-height:1.25;font-family:Foo;-inkscape-font-specification:'Foo, Normal';font-variant-ligatures:normal;font-variant-caps:normal;font-variant-numeric:normal;font-variant-east-asian:normal;letter-spacing:0px;word-spacing:0px;white-space:pre;fill:#000000;fill-opacity:1;stroke:none"
       d="m 153.31991,71.359378 q 0,3.556 -1.4732,5.9944 -1.4224,2.3876 -3.8608,3.5052 0.9652,1.1176 1.9812,2.4384 1.0668,1.27 2.1844,3.048 0.1016,0.203199 0.1016,0.304799 0.0508,0.1016 0.0508,0.2032 0,0.4064 -0.8128,0.8128 -0.762,0.4572 -1.8288,0.8128 -1.0668,0.4064 -2.1844,0.7112 -1.1176,0.3556 -1.778,0.5588 -0.1016,0.0508 -0.4064,0.1016 -0.254,0.0508 -0.3556,0.0508 -0.7112,0 -1.0668,-0.6096 -0.9652,-1.9812 -2.9972,-3.860799 v 1.625599 q 0,0.5588 -0.9144,0.8128 -0.8636,0.254 -2.0828,0.3048 -1.1684,0.1016 -2.4384,0.0508 -1.2192,0 -1.9304,0 -0.7112,0 -1.3208,0 -0.5588,0 -1.1176,-0.1016 -0.4572,-0.0508 -0.8128,-0.6096 -0.3048,-0.5588 -0.6096,-2.590799 -0.254,-2.032 -0.6096,-6.0452 -0.3048,-4.0132 -0.762,-10.9728 -0.0508,-0.762 -0.1524,-1.6764 -0.0508,-0.9652 -0.1524,-1.8288 -0.0508,-0.9144 -0.1016,-1.6256 -0.0508,-0.7112 -0.0508,-1.0668 0,-0.508 0.762,-0.9144 0.762,-0.4064 2.032,-0.7112 1.27,-0.3048 2.9464,-0.4572 1.6764,-0.1524 3.556,-0.1524 3.7592,0 6.7564,0.9144 2.9972,0.8636 5.08,2.4892 2.1336,1.5748 3.2512,3.7592 1.1176,2.1844 1.1176,4.7244 z m -9.0424,4.3688 q 0,-1.016 -0.8128,-1.524 -0.8128,-0.5588 -1.9304,-0.5588 h -0.6604 v 5.588 q 3.4036,-0.5588 3.4036,-3.5052 z" />
    <path
       id="path26"
       style="font-style:normal;font-variant:normal;font-weight:normal;font-stretch:normal;font-size:50.8px;line-height:1.25;font-family:Foo;-inkscape-font-specification:'Foo, Normal';font-variant-ligatures:normal;font-variant-caps:normal;font-variant-numeric:normal;font-variant-east-asian:normal;letter-spacing:0px;word-spacing:0px;white-space:pre;fill:#000000;fill-opacity:1;stroke:none"
       d="m 174.1757,61.351778 q 1.524,6.7564 2.8448,13.2588 1.3716,6.4516 2.54,13.157199 0,0.8128 -0.762,0.8128 -2.286,0 -4.4196,-0.0508 -2.0828,0 -4.3688,-0.254 -0.508,-0.2032 -0.7112,-0.7112 -0.2032,-0.508 -0.3048,-2.133599 -0.6096,0.4064 -1.27,0.7112 -0.6604,0.254 -0.8128,0.254 -0.254,0 -0.6096,-0.1524 -0.3556,-0.2032 -0.508,-0.4572 l -0.2032,1.066799 q -0.1016,0.4572 -0.2032,0.7112 -0.1016,0.254 -0.508,0.3556 -0.4064,0.1524 -1.3208,0.1524 -0.9144,0.0508 -2.6416,0.0508 -1.9812,0 -3.2004,-0.0508 -1.1684,0 -1.8288,-0.1016 -0.6604,-0.1016 -0.8636,-0.3048 -0.2032,-0.1524 -0.2032,-0.4572 0,-0.1016 0,-0.254 0,-0.1524 0.0508,-0.4064 2.9464,-12.699999 6.858,-25.349199 0.1016,-0.3048 0.3556,-0.4572 0.254,-0.1524 0.8128,-0.2032 0.5588,-0.1016 1.524,-0.1016 0.9652,-0.0508 2.4892,-0.0508 2.1844,0 3.556,0.0508 1.3716,0.0508 2.1336,0.2032 0.8128,0.1016 1.1176,0.3048 0.3556,0.1524 0.4572,0.4064 z m -5.8928,18.2372 q 0.254,0 0.8636,0.254 -0.254,-1.5748 -0.6096,-2.8956 -0.3556,-1.3208 -0.9144,-3.302 -0.508,1.6256 -0.9144,3.4036 -0.4064,1.7272 -0.8128,3.556 1.1684,-0.7112 1.524,-0.8636 0.4064,-0.1524 0.8636,-0.1524 z" />
    <circle
       id="path941"
       style="fill:#000080;stroke:#000000;stroke-width:0.264583"
       cx="20.42948"
       cy="58.544186"
       r="0.042645779" />
    <path
       id="path970"
       style="opacity:1;fill:#800080;fill-opacity:0.969231;stroke:none;stroke-width:1.05262;stroke-linecap:square;stroke-linejoin:miter;stroke-miterlimit:4;stroke-dasharray:none;stroke-dashoffset:0;stroke-opacity:1"
       d="m 21.977186,66.984223 c -2.610792,0 -4.727257,-2.230753 -4.727257,-4.982526 0,-2.751773 5.322129,-5.644565 8.991153,-1.777416 3.669025,3.867149 -1.653104,6.759942 -4.263896,6.759942 z"
       sodipodi:nodetypes="sscs" />
    <ellipse
       ry="3.134196"
       rx="2.9287944"
       cy="82.875328"
       cx="65.701157"
       id="path970-5"
       style="opacity:1;fill:#000000;fill-opacity:0.969231;stroke:none;stroke-width:0.65713;stroke-linecap:square;stroke-linejoin:miter;stroke-miterlimit:4;stroke-dasharray:none;stroke-dashoffset:0;stroke-opacity:1" />
    <ellipse
       ry="3.6344795"
       rx="4.2248697"
       cy="83.048012"
       cx="65.16497"
       id="path972-7"
       style="opacity:1;fill:#800080;fill-opacity:0.969231;stroke:none;stroke-width:0.90567;stroke-linecap:square;stroke-linejoin:miter;stroke-miterlimit:4;stroke-dasharray:none;stroke-dashoffset:0;stroke-opacity:1" />
    <ellipse
       ry="3.8513489"
       rx="3.6522748"
       cy="83.087524"
       cx="167.54794"
       id="path972-2"
       style="opacity:1;fill:#800080;fill-opacity:0.969231;stroke:none;stroke-width:0.866822;stroke-linecap:square;stroke-linejoin:miter;stroke-miterlimit:4;stroke-dasharray:none;stroke-dashoffset:0;stroke-opacity:1" />
    <path
       sodipodi:nodetypes="sscs"
       d="m 37.138815,66.125581 c -2.298554,0.660615 -4.726353,-0.767816 -5.422641,-3.190489 -0.696288,-2.422674 3.257368,-6.316173 7.466109,-3.839901 4.208742,2.476274 0.255086,6.369774 -2.043468,7.03039 z"
       style="opacity:1;fill:#800080;fill-opacity:0.969231;stroke:none;stroke-width:0.964251;stroke-linecap:square;stroke-linejoin:miter;stroke-miterlimit:4;stroke-dasharray:none;stroke-dashoffset:0;stroke-opacity:1"
       id="path970-0" />
  </g>
</svg>
