<?xml version="1.0" encoding="UTF-8" standalone="no"?>
<svg
   xmlns:dc="http://purl.org/dc/elements/1.1/"
   xmlns:cc="http://creativecommons.org/ns#"
   xmlns:rdf="http://www.w3.org/1999/02/22-rdf-syntax-ns#"
   xmlns:svg="http://www.w3.org/2000/svg"
   xmlns="http://www.w3.org/2000/svg"
   xmlns:sodipodi="http://sodipodi.sourceforge.net/DTD/sodipodi-0.dtd"
   xmlns:inkscape="http://www.inkscape.org/namespaces/inkscape"
   sodipodi:docname="natura icon.svg"
   inkscape:version="1.0 (4035a4fb49, 2020-05-01)"
   id="svg857"
   version="1.1"
   viewBox="0 0 210 297"
   height="297mm"
   width="210mm"
   inkscape:export-filename="C:\Users\eshor\Desktop\g1945.png"
   inkscape:export-xdpi="300"
   inkscape:export-ydpi="300">
  <defs
     id="defs851" />
  <sodipodi:namedview
     inkscape:window-maximized="1"
     inkscape:window-y="-9"
     inkscape:window-x="-9"
     inkscape:window-height="1001"
     inkscape:window-width="1920"
     showgrid="false"
     inkscape:document-rotation="0"
     inkscape:current-layer="layer1"
     inkscape:document-units="mm"
     inkscape:cy="792.36324"
     inkscape:cx="511.07126"
     inkscape:zoom="1.0916486"
     inkscape:pageshadow="2"
     inkscape:pageopacity="0"
     borderopacity="1"
     bordercolor="#4d4d4d"
     pagecolor="#4d4d4d"
     id="base" />
  <metadata
     id="metadata854">
    <rdf:RDF>
      <cc:Work
         rdf:about="">
        <dc:format>image/svg+xml</dc:format>
        <dc:type
           rdf:resource="http://purl.org/dc/dcmitype/StillImage" />
        <dc:title></dc:title>
      </cc:Work>
    </rdf:RDF>
  </metadata>
  <g
     id="layer1"
     inkscape:groupmode="layer"
     inkscape:label="Layer 1">
    <path
       inkscape:original-d="M 15.22723,120.94284 H 194.1808 c 1.45368,0 2.62397,1.17029 2.62397,2.62397 v 136.53876 c 0,1.45368 -1.17029,2.62397 -2.62397,2.62397 H 15.22723 c -1.453678,0 -2.623968,-1.17029 -2.623968,-2.62397 V 123.56681 c 0,-1.45368 1.17029,-2.62397 2.623968,-2.62397 z"
       d="M 39.143352,128.21838 H 187.95737 c 1.20885,0 2.18203,0.97319 2.18203,2.18204 v 113.54275 c 0,1.20885 -0.97318,2.18204 -2.18203,2.18204 H 39.143352 c -1.208848,0 -2.182036,-0.97319 -2.182036,-2.18204 V 130.40042 c 0,-1.20885 0.973188,-2.18204 2.182036,-2.18204 z"
       style="font-variation-settings:normal;opacity:1;vector-effect:none;fill:#a166df;fill-opacity:0.968627;fill-rule:evenodd;stroke-width:0.3;stroke-linecap:square;stroke-linejoin:miter;stroke-miterlimit:4;stroke-dasharray:none;stroke-dashoffset:0;stroke-opacity:1;paint-order:fill markers stroke;stop-color:#000000;stop-opacity:1"
       id="rect975" />
    <g
       inkscape:export-ydpi="300"
       inkscape:export-xdpi="300"
       id="g1945"
       transform="matrix(5.6723684,0,0,5.6723684,-811.30139,-1211.9525)"
       style="stroke-width:0.176293">
      <path
         d="m 171.12952,238.27863 q 0.0753,0.23235 0.11312,0.43554 0.0377,0.20341 0.11311,0.43556 -0.15079,0.2904 -0.26392,0.58078 -0.11311,0.26127 -0.2262,0.52265 -0.11311,0.20341 -0.1508,0.26129 -0.0377,0.0581 -0.0377,0.0871 0,0.0289 0,0.0871 0.0377,0.0289 0.0377,0.23234 l -0.1508,0.34848 q -0.18852,0.20312 -0.45242,0.31939 -0.26391,0.1163 -0.52782,0.2034 -0.0753,0.0581 -0.2262,0.0871 -0.1508,0.0581 -0.2262,0.11602 l -0.11311,0.34845 -0.49012,0.0581 q -0.64092,0.11604 -1.09334,0.11604 h -0.45241 q -0.45242,-0.31942 -0.71632,-0.49364 -0.26393,-0.1742 -0.56553,-0.31939 -0.37701,-0.40654 -0.41471,-0.58077 -0.0377,-0.2034 -0.11312,-0.37749 -0.0753,-0.37749 -0.18851,-0.49364 l -0.52782,-0.40652 0.45242,-0.26128 -0.41472,-0.55172 q 0.45242,-0.26129 0.67862,-0.37748 0.22621,-0.11605 0.37701,-0.23236 0.15081,-0.14525 0.33933,-0.34843 0.18852,-0.20342 0.60321,-0.66788 l 0.33933,-0.37749 0.49011,0.20342 q 0.15081,0.0871 0.64092,0.17419 0.52783,0.0581 0.90484,0.11604 0.64092,0.14525 1.20644,0.23234 0.56552,0.0581 0.90483,0.29037 z"
         style="font-style:normal;font-variant:normal;font-weight:normal;font-stretch:normal;font-size:10.5833px;line-height:1.25;font-family:'Permanent Marker';-inkscape-font-specification:'Permanent Marker, Normal';font-variant-ligatures:normal;font-variant-caps:normal;font-variant-numeric:normal;font-variant-east-asian:normal;letter-spacing:0px;word-spacing:0px;white-space:pre;fill:#579317;fill-opacity:1;stroke:none;stroke-width:0.176292"
         id="path1734-6-0-2" />
      <path
         id="path1657-1-0"
         style="font-style:normal;font-variant:normal;font-weight:normal;font-stretch:normal;font-size:25.4px;line-height:1.25;font-family:'Luckiest Guy';-inkscape-font-specification:'Luckiest Guy, Normal';font-variant-ligatures:normal;font-variant-caps:normal;font-variant-numeric:normal;font-variant-east-asian:normal;letter-spacing:0px;word-spacing:0px;white-space:pre;fill:#531793;fill-opacity:1;stroke:none;stroke-width:0.176293"
         d="m 160.20678,237.37928 -6.39088,0.29377 -0.46015,17.35681 h 5.7518 l 0.5624,-9.05786 3.57889,8.88649 6.69765,-0.58754 0.63748,-11.49878 -5.87055,-0.002 -0.0841,3.42219 z" />
    </g>
  </g>
</svg>
